<svg width="234" height="19" viewBox="0 0 234 19" fill="none" xmlns="http://www.w3.org/2000/svg">
<path d="M42.9431 3.32505L47.15 7.53197M47.15 7.53197L42.9431 11.7389M47.15 7.53197H37.85C35.6409 7.53197 33.85 9.32284 33.85 11.532V15.675" stroke="#616161" stroke-width="2" stroke-linecap="round" stroke-linejoin="round"/>
<path d="M7.79978 4.1501L3.15002 8.13561M3.15002 8.13561L7.79978 12.1211M3.15002 8.13561L13.85 8.13561C16.0592 8.13561 17.85 9.92647 17.85 12.1356V15.8501" stroke="#616161" stroke-width="2" stroke-linecap="round" stroke-linejoin="round"/>
<rect x="101" y="1" width="102" height="18" fill="#EBEBEB"/>
<path d="M110.516 9.084C110.516 9.78 110.276 10.36 109.796 10.824C109.324 11.28 108.6 11.508 107.624 11.508H106.016V15H104.924V6.636H107.624C108.568 6.636 109.284 6.864 109.772 7.32C110.268 7.776 110.516 8.364 110.516 9.084ZM107.624 10.608C108.232 10.608 108.68 10.476 108.968 10.212C109.256 9.948 109.4 9.572 109.4 9.084C109.4 8.052 108.808 7.536 107.624 7.536H106.016V10.608H107.624ZM111.705 11.688C111.705 11.016 111.841 10.428 112.113 9.924C112.385 9.412 112.757 9.016 113.229 8.736C113.709 8.456 114.241 8.316 114.825 8.316C115.401 8.316 115.901 8.44 116.325 8.688C116.749 8.936 117.065 9.248 117.273 9.624V8.424H118.377V15H117.273V13.776C117.057 14.16 116.733 14.48 116.301 14.736C115.877 14.984 115.381 15.108 114.813 15.108C114.229 15.108 113.701 14.964 113.229 14.676C112.757 14.388 112.385 13.984 112.113 13.464C111.841 12.944 111.705 12.352 111.705 11.688ZM117.273 11.7C117.273 11.204 117.173 10.772 116.973 10.404C116.773 10.036 116.501 9.756 116.157 9.564C115.821 9.364 115.449 9.264 115.041 9.264C114.633 9.264 114.261 9.36 113.925 9.552C113.589 9.744 113.321 10.024 113.121 10.392C112.921 10.76 112.821 11.192 112.821 11.688C112.821 12.192 112.921 12.632 113.121 13.008C113.321 13.376 113.589 13.66 113.925 13.86C114.261 14.052 114.633 14.148 115.041 14.148C115.449 14.148 115.821 14.052 116.157 13.86C116.501 13.66 116.773 13.376 116.973 13.008C117.173 12.632 117.273 12.196 117.273 11.7ZM121.555 9.492C121.747 9.116 122.019 8.824 122.371 8.616C122.731 8.408 123.167 8.304 123.679 8.304V9.432H123.391C122.167 9.432 121.555 10.096 121.555 11.424V15H120.463V8.424H121.555V9.492ZM124.771 11.688C124.771 11.016 124.907 10.428 125.179 9.924C125.451 9.412 125.823 9.016 126.295 8.736C126.775 8.456 127.307 8.316 127.891 8.316C128.467 8.316 128.967 8.44 129.391 8.688C129.815 8.936 130.131 9.248 130.339 9.624V8.424H131.443V15H130.339V13.776C130.123 14.16 129.799 14.48 129.367 14.736C128.943 14.984 128.447 15.108 127.879 15.108C127.295 15.108 126.767 14.964 126.295 14.676C125.823 14.388 125.451 13.984 125.179 13.464C124.907 12.944 124.771 12.352 124.771 11.688ZM130.339 11.7C130.339 11.204 130.239 10.772 130.039 10.404C129.839 10.036 129.567 9.756 129.223 9.564C128.887 9.364 128.515 9.264 128.107 9.264C127.699 9.264 127.327 9.36 126.991 9.552C126.655 9.744 126.387 10.024 126.187 10.392C125.987 10.76 125.887 11.192 125.887 11.688C125.887 12.192 125.987 12.632 126.187 13.008C126.387 13.376 126.655 13.66 126.991 13.86C127.327 14.052 127.699 14.148 128.107 14.148C128.515 14.148 128.887 14.052 129.223 13.86C129.567 13.66 129.839 13.376 130.039 13.008C130.239 12.632 130.339 12.196 130.339 11.7ZM136.241 8.316C136.809 8.316 137.305 8.44 137.729 8.688C138.161 8.936 138.481 9.248 138.689 9.624V8.424H139.793V15.144C139.793 15.744 139.665 16.276 139.409 16.74C139.153 17.212 138.785 17.58 138.305 17.844C137.833 18.108 137.281 18.24 136.649 18.24C135.785 18.24 135.065 18.036 134.489 17.628C133.913 17.22 133.573 16.664 133.469 15.96H134.549C134.669 16.36 134.917 16.68 135.293 16.92C135.669 17.168 136.121 17.292 136.649 17.292C137.249 17.292 137.737 17.104 138.113 16.728C138.497 16.352 138.689 15.824 138.689 15.144V13.764C138.473 14.148 138.153 14.468 137.729 14.724C137.305 14.98 136.809 15.108 136.241 15.108C135.657 15.108 135.125 14.964 134.645 14.676C134.173 14.388 133.801 13.984 133.529 13.464C133.257 12.944 133.121 12.352 133.121 11.688C133.121 11.016 133.257 10.428 133.529 9.924C133.801 9.412 134.173 9.016 134.645 8.736C135.125 8.456 135.657 8.316 136.241 8.316ZM138.689 11.7C138.689 11.204 138.589 10.772 138.389 10.404C138.189 10.036 137.917 9.756 137.573 9.564C137.237 9.364 136.865 9.264 136.457 9.264C136.049 9.264 135.677 9.36 135.341 9.552C135.005 9.744 134.737 10.024 134.537 10.392C134.337 10.76 134.237 11.192 134.237 11.688C134.237 12.192 134.337 12.632 134.537 13.008C134.737 13.376 135.005 13.66 135.341 13.86C135.677 14.052 136.049 14.148 136.457 14.148C136.865 14.148 137.237 14.052 137.573 13.86C137.917 13.66 138.189 13.376 138.389 13.008C138.589 12.632 138.689 12.196 138.689 11.7ZM142.97 9.492C143.162 9.116 143.434 8.824 143.786 8.616C144.146 8.408 144.582 8.304 145.094 8.304V9.432H144.806C143.582 9.432 142.97 10.096 142.97 11.424V15H141.878V8.424H142.97V9.492ZM146.186 11.688C146.186 11.016 146.322 10.428 146.594 9.924C146.866 9.412 147.238 9.016 147.71 8.736C148.19 8.456 148.722 8.316 149.306 8.316C149.882 8.316 150.382 8.44 150.806 8.688C151.23 8.936 151.546 9.248 151.754 9.624V8.424H152.858V15H151.754V13.776C151.538 14.16 151.214 14.48 150.782 14.736C150.358 14.984 149.862 15.108 149.294 15.108C148.71 15.108 148.182 14.964 147.71 14.676C147.238 14.388 146.866 13.984 146.594 13.464C146.322 12.944 146.186 12.352 146.186 11.688ZM151.754 11.7C151.754 11.204 151.654 10.772 151.454 10.404C151.254 10.036 150.982 9.756 150.638 9.564C150.302 9.364 149.93 9.264 149.522 9.264C149.114 9.264 148.742 9.36 148.406 9.552C148.07 9.744 147.802 10.024 147.602 10.392C147.402 10.76 147.302 11.192 147.302 11.688C147.302 12.192 147.402 12.632 147.602 13.008C147.802 13.376 148.07 13.66 148.406 13.86C148.742 14.052 149.114 14.148 149.522 14.148C149.93 14.148 150.302 14.052 150.638 13.86C150.982 13.66 151.254 13.376 151.454 13.008C151.654 12.632 151.754 12.196 151.754 11.7ZM156.036 9.636C156.252 9.26 156.572 8.948 156.996 8.7C157.428 8.444 157.928 8.316 158.496 8.316C159.08 8.316 159.608 8.456 160.08 8.736C160.56 9.016 160.936 9.412 161.208 9.924C161.48 10.428 161.616 11.016 161.616 11.688C161.616 12.352 161.48 12.944 161.208 13.464C160.936 13.984 160.56 14.388 160.08 14.676C159.608 14.964 159.08 15.108 158.496 15.108C157.936 15.108 157.44 14.984 157.008 14.736C156.584 14.48 156.26 14.164 156.036 13.788V18.12H154.944V8.424H156.036V9.636ZM160.5 11.688C160.5 11.192 160.4 10.76 160.2 10.392C160 10.024 159.728 9.744 159.384 9.552C159.048 9.36 158.676 9.264 158.268 9.264C157.868 9.264 157.496 9.364 157.152 9.564C156.816 9.756 156.544 10.04 156.336 10.416C156.136 10.784 156.036 11.212 156.036 11.7C156.036 12.196 156.136 12.632 156.336 13.008C156.544 13.376 156.816 13.66 157.152 13.86C157.496 14.052 157.868 14.148 158.268 14.148C158.676 14.148 159.048 14.052 159.384 13.86C159.728 13.66 160 13.376 160.2 13.008C160.4 12.632 160.5 12.192 160.5 11.688ZM166.557 8.304C167.053 8.304 167.501 8.412 167.901 8.628C168.301 8.836 168.613 9.152 168.837 9.576C169.069 10 169.185 10.516 169.185 11.124V15H168.105V11.28C168.105 10.624 167.941 10.124 167.613 9.78C167.285 9.428 166.837 9.252 166.269 9.252C165.693 9.252 165.233 9.432 164.889 9.792C164.553 10.152 164.385 10.676 164.385 11.364V15H163.293V6.12H164.385V9.36C164.601 9.024 164.897 8.764 165.273 8.58C165.657 8.396 166.085 8.304 166.557 8.304Z" fill="#616161"/>
<circle cx="217.5" cy="9.5" r="2.5" fill="#616161"/>
<circle cx="224.5" cy="9.5" r="2.5" fill="#616161"/>
<circle cx="231.5" cy="9.5" r="2.5" fill="#616161"/>
<path d="M77.5961 1.8999H83.0995M83.0995 1.8999V7.40335M83.0995 1.8999L77.5961 7.40335M73.404 17.0999H67.9005M67.9005 17.0999V11.5964M67.9005 17.0999L73.6005 11.3999M83.1 11.596V17.0994M83.1 17.0994H77.5966M83.1 17.0994L77.5966 11.596M67.9 7.40385L67.9 1.9004M67.9 1.9004L73.4035 1.9004M67.9 1.9004L73.6 7.6004" stroke="#616161" stroke-width="2" stroke-linecap="round" stroke-linejoin="round"/>
</svg>
