<svg width="17" height="14" viewBox="0 0 17 14" fill="none" xmlns="http://www.w3.org/2000/svg">
<path d="M8.23242 3.39844L2.8418 7.85156V12.627C2.8418 12.8906 3.04688 13.0957 3.31055 13.0957H6.5918C6.82617 13.0957 7.03125 12.8906 7.03125 12.627V9.81445C7.03125 9.58008 7.26562 9.3457 7.5 9.3457H9.375C9.63867 9.3457 9.84375 9.58008 9.84375 9.81445V12.627C9.84375 12.8906 10.0781 13.0957 10.3125 13.0957H13.623C13.8574 13.0957 14.0918 12.8906 14.0918 12.627V7.82227L8.67188 3.39844C8.61328 3.33984 8.52539 3.31055 8.4668 3.31055C8.37891 3.31055 8.29102 3.33984 8.23242 3.39844ZM16.7578 6.41602L14.3262 4.39453V0.351562C14.3262 0.146484 14.1504 0 13.9746 0H12.334C12.1289 0 11.9824 0.146484 11.9824 0.351562V2.46094L9.3457 0.292969C9.11133 0.117188 8.78906 0 8.4668 0C8.11523 0 7.79297 0.117188 7.55859 0.292969L0.146484 6.41602C0.0585938 6.47461 0 6.5918 0 6.67969C0 6.76758 0.0585938 6.85547 0.0878906 6.91406L0.849609 7.82227C0.908203 7.91016 0.996094 7.93945 1.11328 7.93945C1.20117 7.93945 1.28906 7.91016 1.34766 7.85156L8.23242 2.19727C8.29102 2.13867 8.37891 2.10938 8.4668 2.10938C8.52539 2.10938 8.61328 2.13867 8.67188 2.19727L15.5566 7.85156C15.6152 7.91016 15.7031 7.93945 15.791 7.93945C15.9082 7.93945 15.9961 7.91016 16.0547 7.82227L16.8164 6.91406C16.875 6.85547 16.9043 6.76758 16.9043 6.67969C16.9043 6.5918 16.8457 6.47461 16.7578 6.41602Z" fill="white"/>
</svg>
