<svg width="32" height="34" viewBox="0 0 32 34" fill="none" xmlns="http://www.w3.org/2000/svg">
<ellipse cx="16.1346" cy="16.7322" rx="15.1346" ry="16.2586" fill="white"/>
<path d="M16.1346 0C7.5461 0 0.558594 7.50643 0.558594 16.7328C0.558594 25.9592 7.5461 33.4656 16.1346 33.4656C24.7232 33.4656 31.7107 25.9592 31.7107 16.7328C31.7107 7.50643 24.7232 0 16.1346 0ZM16.1346 27.0299C14.5695 27.0299 13.325 26.3172 13.158 24.8112C13.1535 24.7662 13.158 24.7207 13.1711 24.6777C13.1841 24.6346 13.2055 24.595 13.2338 24.5615C13.262 24.5279 13.2966 24.5012 13.3351 24.4829C13.3737 24.4647 13.4154 24.4554 13.4575 24.4556H18.808C18.8506 24.4553 18.8927 24.4647 18.9316 24.4832C18.9705 24.5018 19.0053 24.529 19.0336 24.5631C19.062 24.5972 19.0832 24.6374 19.096 24.681C19.1087 24.7246 19.1127 24.7706 19.1076 24.816C18.9166 26.2938 17.6833 27.0299 16.1346 27.0299ZM23.4734 23.1685H8.79593C7.90929 23.1685 7.448 21.9618 7.95797 21.3182C9.18084 19.7624 10.045 19.1084 10.045 14.8182C10.045 10.8868 11.9725 9.49184 13.5646 8.81126C13.6742 8.76221 13.7729 8.68906 13.8546 8.5965C13.9362 8.50395 13.9989 8.39405 14.0386 8.27389C14.3149 7.28842 15.0967 6.43569 16.1346 6.43569C17.1725 6.43569 17.9528 7.28842 18.2314 8.27469C18.2714 8.39483 18.3342 8.50469 18.416 8.59723C18.4977 8.68976 18.5966 8.76294 18.7062 8.81207C20.2945 9.49103 22.2258 10.8884 22.2258 14.819C22.2258 19.1092 23.0892 19.7632 24.3121 21.319C24.8168 21.9618 24.3548 23.1685 23.4734 23.1685Z" fill="#3683F0"/>
<ellipse cx="22.6935" cy="10.7712" rx="3.53143" ry="3.79367" fill="#FF2C55"/>
</svg>
