<svg width="16" height="16" viewBox="0 0 16 16" fill="none" xmlns="http://www.w3.org/2000/svg">
<path d="M14.8828 11.8066L11.4551 8.37891C10.752 7.70508 9.75586 7.55859 8.93555 7.96875L5.83008 4.86328V3.01758L2.08008 0.205078L0.205078 2.08008L3.01758 5.83008H4.83398L7.93945 8.96484C7.55859 9.78516 7.67578 10.7812 8.34961 11.4551L11.7773 14.9121C12.2168 15.3223 12.8906 15.3223 13.3301 14.9121L14.8828 13.3594C15.293 12.9199 15.293 12.2461 14.8828 11.8066ZM9.90234 6.79688C10.752 6.79688 11.5137 7.11914 12.0996 7.70508L12.6855 8.29102C13.125 8.08594 13.5645 7.79297 13.9453 7.41211C15.0293 6.32812 15.4102 4.80469 15.0586 3.42773C15 3.16406 14.6777 3.07617 14.4727 3.25195L12.3047 5.44922L10.3125 5.09766L9.99023 3.10547L12.1582 0.9375C12.3633 0.732422 12.2461 0.410156 11.9824 0.351562C10.6055 0 9.08203 0.380859 7.99805 1.46484C7.14844 2.28516 6.76758 3.39844 6.76758 4.48242L9.19922 6.88477C9.43359 6.82617 9.66797 6.79688 9.90234 6.79688ZM6.85547 9.19922L5.21484 7.55859L0.732422 12.0117C0 12.7441 0 13.9453 0.732422 14.6777C1.46484 15.4102 2.66602 15.4102 3.39844 14.6777L7.00195 11.0449C6.79688 10.459 6.70898 9.84375 6.85547 9.19922ZM2.08008 14.0332C1.66992 14.0332 1.37695 13.7402 1.37695 13.3301C1.37695 12.9492 1.66992 12.627 2.08008 12.627C2.46094 12.627 2.7832 12.9492 2.7832 13.3301C2.7832 13.7402 2.46094 14.0332 2.08008 14.0332Z" fill="white"/>
</svg>
